<?xml version="1.0" standalone="no"?>
<!DOCTYPE svg PUBLIC "-//W3C//DTD SVG 20010904//EN"
 "http://www.w3.org/TR/2001/REC-SVG-20010904/DTD/svg10.dtd">
<svg version="1.0" xmlns="http://www.w3.org/2000/svg"
 width="512.000000pt" height="512.000000pt" viewBox="0 0 512.000000 512.000000"
 preserveAspectRatio="xMidYMid meet">
<metadata>
Created by potrace 1.11, written by Peter Selinger 2001-2013
</metadata>
<g transform="translate(0.000000,512.000000) scale(0.100000,-0.100000)"
fill="#000000" stroke="none">
<path d="M445 5110 c-134 -18 -260 -92 -339 -200 -56 -75 -84 -151 -97 -254
-6 -51 -9 -855 -7 -2156 l3 -2075 22 -65 c55 -162 177 -282 337 -333 l71 -22
2125 0 2125 0 71 22 c163 52 285 174 337 338 l22 70 0 2125 0 2125 -22 71
c-51 160 -171 282 -333 337 l-65 22 -2095 1 c-1152 1 -2122 -2 -2155 -6z
m3245 -711 c92 -32 172 -111 195 -194 25 -84 16 -242 -19 -348 -128 -385 -530
-754 -1103 -1012 -69 -31 -211 -85 -316 -120 l-192 -64 2 -66 c5 -218 120
-428 277 -505 202 -100 482 -22 826 229 119 87 321 291 472 478 76 95 184 220
240 278 l101 106 38 -37 38 -37 -91 -96 c-211 -223 -385 -491 -671 -1031 -238
-451 -339 -616 -491 -807 -199 -247 -479 -413 -791 -469 -129 -22 -399 -23
-540 -1 -405 64 -689 278 -770 583 -21 76 -21 247 -1 341 32 153 145 311 279
391 155 93 385 124 557 76 82 -24 250 -115 250 -137 0 -4 -12 -25 -26 -47
l-26 -39 -46 33 c-104 74 -226 112 -325 101 -280 -33 -448 -238 -448 -549 0
-147 28 -240 108 -353 93 -133 243 -228 438 -280 84 -22 123 -26 245 -27 221
-1 371 38 543 142 205 124 334 281 624 762 168 278 192 316 275 429 38 51 64
89 56 85 -7 -4 -38 -27 -68 -50 -135 -102 -336 -206 -470 -244 -105 -30 -292
-38 -380 -16 -274 69 -447 296 -485 634 -7 59 -9 63 -29 58 -71 -18 -406 -66
-458 -66 -15 0 -18 9 -18 53 l0 54 128 17 c199 26 356 57 368 72 6 8 14 51 17
96 24 323 195 732 422 1004 263 315 567 518 885 589 98 22 295 14 380 -16z"/>
<path d="M3375 4295 c-482 -105 -953 -661 -1085 -1282 -28 -133 -39 -232 -26
-228 116 35 325 108 406 142 593 253 1024 656 1110 1039 18 81 14 187 -9 233
-23 44 -69 82 -120 100 -45 15 -201 13 -276 -4z"/>
</g>
</svg>
